<?xml version="1.0" encoding="UTF-8" standalone="no"?>
<!-- Created with Inkscape (http://www.inkscape.org/) -->

<svg
   version="1.1"
   id="svg2"
   width="351.04001"
   height="371.28"
   viewBox="0 0 351.04001 371.28"
   sodipodi:docname="Certif RegExecDL145 1E3513A.eps"
   xmlns:inkscape="http://www.inkscape.org/namespaces/inkscape"
   xmlns:sodipodi="http://sodipodi.sourceforge.net/DTD/sodipodi-0.dtd"
   xmlns="http://www.w3.org/2000/svg"
   xmlns:svg="http://www.w3.org/2000/svg">
  <defs
     id="defs6" />
  <sodipodi:namedview
     id="namedview4"
     pagecolor="#ffffff"
     bordercolor="#000000"
     borderopacity="0.25"
     inkscape:showpageshadow="2"
     inkscape:pageopacity="0.0"
     inkscape:pagecheckerboard="0"
     inkscape:deskcolor="#d1d1d1" />
  <g
     id="g8"
     inkscape:groupmode="layer"
     inkscape:label="ink_ext_XXXXXX"
     transform="matrix(1.3333333,0,0,-1.3333333,0,371.28)">
    <g
       id="g10"
       transform="scale(0.1)">
      <path
         d="m 2632.75,1678.11 c 0,6.07 -3.45,11.1 -10.37,15.08 -6.92,3.99 -15.72,5.98 -26.41,5.98 -22.22,-0.01 -46.44,-10.91 -72.63,-32.71 -26.21,-21.59 -44.97,-46.53 -56.29,-74.81 -6.92,-17.41 -10.9,-37.65 -11.93,-60.68 -0.85,-23.07 -4.73,-34.59 -11.65,-34.59 h -22.01 c -5.86,-0.01 -9.84,-1.79 -11.95,-5.35 -1.87,-3.57 -2.83,-9.97 -2.83,-19.17 0,-1.48 0.74,-2.75 2.21,-3.78 1.68,-0.84 3.88,-1.25 6.61,-1.25 h 27.97 c 3.56,-0.02 6.08,-1.17 7.55,-3.46 1.68,-2.11 2.52,-5.67 2.52,-10.69 v -153.12 -11.63 c 0,-18.67 -7.45,-32.93 -22.31,-42.77 l -0.63,-0.62 c -4.43,-2.52 -7.36,-4.73 -8.81,-6.61 -1.48,-1.89 -2.22,-3.98 -2.22,-6.28 0,-2.74 1.06,-4.93 3.15,-6.61 2.1,-1.87 4.93,-2.83 8.51,-2.83 -1.48,0.02 4.9,0.84 19.16,2.52 14.26,1.68 29.45,2.52 45.59,2.52 10.7,-0.02 22.43,-0.84 35.21,-2.52 12.99,-1.68 20.65,-2.52 22.95,-2.52 4.82,0.02 8.39,1.06 10.7,3.15 2.3,1.89 3.46,4.92 3.46,9.12 0,2.93 -0.74,5.23 -2.21,6.91 -1.46,1.68 -5.03,3.24 -10.7,4.71 -0.41,0 -1.04,0.21 -1.87,0.64 -7.76,2.52 -13.64,5.22 -17.61,8.17 -5.25,4.18 -8.92,9.33 -10.99,15.41 -2.11,6.07 -3.15,17.5 -3.15,34.27 v 150.6 c 0,4.61 0.83,7.64 2.51,9.12 1.67,1.67 4.72,2.52 9.12,2.52 h 28.3 c 6.28,0 11.01,0.41 14.14,1.25 3.34,0.84 5.76,2.3 7.23,4.41 2.52,3.54 5.03,9 7.55,16.35 2.72,7.54 4.1,12.25 4.1,14.15 -0.02,1.87 -0.54,3.35 -1.59,4.38 -0.84,1.26 -2.09,1.9 -3.76,1.9 -0.42,0 -3.78,-2.2 -10.06,-6.6 -6.3,-4.2 -12.58,-6.29 -18.88,-6.29 h -25.77 c -5.04,0 -8.39,0.41 -10.07,1.26 -1.47,0.83 -2.19,3.03 -2.19,6.6 v 4.39 54.72 c 0,33.74 3.15,58.06 9.43,72.94 6.49,14.87 16.66,22.31 30.49,22.31 11.11,0 19.92,-7.02 26.41,-21.05 6.49,-13.84 11.74,-20.75 15.72,-20.75 6.08,0 12.27,7.32 18.55,22.01 6.49,14.66 9.75,27.75 9.75,39.3 m -657.93,-604.77 c -12.62,-21.87 -36.42,-84.879 41.19,-129.699 77.6,-44.789 120.28,7.32 132.91,29.199 12.62,21.871 36.43,84.9 -41.17,129.7 -77.61,44.81 -120.29,-7.32 -132.93,-29.2 m 112.97,-5.35 c 46.29,-26.72 42.64,-59.61 31.89,-78.26 -10.77,-18.671 -37.44,-38.261 -83.73,-11.539 -46.29,26.719 -42.65,59.629 -31.87,78.279 10.76,18.65 37.42,38.24 83.71,11.52 m -98.63,418.95 c -11.96,9.85 -22.84,14.79 -32.7,14.79 -7.96,0 -17.71,-5.04 -29.24,-15.11 -11.32,-9.84 -23.68,-24.2 -37.1,-43.07 l 1.89,52.19 v 11.01 c 0,1.27 -0.74,2.61 -2.21,4.09 -1.46,1.45 -3.04,2.21 -4.71,2.21 -1.68,-0.02 -8.39,-2.75 -20.13,-8.19 -11.52,-5.24 -22.64,-9.74 -33.32,-13.51 -7.33,-2.53 -16.56,-5.15 -27.67,-7.86 -3.15,-0.43 -5.34,-0.84 -6.61,-1.26 -9,-1.68 -14.55,-3.45 -16.66,-5.35 -2.09,-1.68 -3.14,-4.39 -3.14,-8.18 0,-3.14 0.95,-5.56 2.83,-7.23 1.9,-1.46 6.07,-2.51 12.58,-3.13 h 0.62 c 6.93,-0.84 12.05,-2.11 15.41,-3.77 4.61,-2.95 7.76,-6.83 9.44,-11.64 1.87,-4.83 2.83,-14.89 2.83,-30.19 v -113.18 -11 c -0.02,-10.92 -1.68,-19.81 -5.04,-26.74 -3.36,-6.7 -9.42,-12.48 -18.23,-17.28 -4.41,-2.31 -7.24,-4.3 -8.49,-5.98 -1.25,-1.68 -1.89,-3.67 -1.89,-5.98 0,-3.14 1.05,-5.66 3.14,-7.54 2.31,-1.87 5.14,-2.83 8.51,-2.83 -1.69,0.02 4.7,0.84 19.17,2.52 14.68,1.68 30.39,2.52 47.16,2.52 10.7,-0.02 23.05,-0.84 37.1,-2.52 14.23,-1.68 23.16,-2.52 26.71,-2.52 5.04,0 8.91,0.96 11.65,2.83 2.94,1.88 4.4,4.61 4.4,8.19 -0.01,5.43 -4.31,9.43 -12.89,11.93 -0.85,0.41 -1.48,0.74 -1.89,0.94 -5.45,0.84 -10.06,1.99 -13.84,3.47 -3.56,1.47 -6.92,3.23 -10.06,5.34 -6.28,4.41 -10.69,9.63 -13.19,15.72 -2.32,6.29 -3.47,17.62 -3.47,33.96 v 63.83 c 0,22.83 2.73,39.61 8.18,50.31 5.66,10.67 14.36,16.02 26.08,16.02 8.61,0 18.45,-4.52 29.58,-13.51 11.09,-9.02 18.32,-13.53 21.68,-13.53 5.86,0 12.58,6.7 20.12,20.12 7.76,13.42 11.64,24 11.64,31.77 -0.02,8.38 -6.08,17.5 -18.24,27.34 m -186.29,523.96 c -59.98,-66.64 -17.87,-119.25 0.93,-136.17 18.78,-16.92 75.51,-53.31 135.5,13.32 60,66.64 17.87,119.25 -0.91,136.16 -18.8,16.92 -75.52,53.32 -135.52,-13.31 m 29.67,-26.71 c 35.78,39.74 67.22,29.33 83.22,14.91 16.03,-14.42 29.67,-44.61 -6.11,-84.34 -35.79,-39.74 -67.23,-29.33 -83.24,-14.92 -16.02,14.43 -29.65,44.6 6.13,84.35 M 1588.3,1290.43 c -19.09,21.18 -28.62,45.39 -28.62,72.64 0,7.54 1.35,12.36 4.09,14.47 2.73,2.09 9.75,3.13 21.07,3.13 h 138.65 c 11.72,0 18.76,0.94 21.06,2.83 2.52,1.9 3.77,6.5 3.77,13.83 0,27.04 -11.94,51.35 -35.84,72.94 -23.92,21.81 -52.93,32.72 -87.09,32.72 -38.15,0 -69.59,-14.47 -94.32,-43.39 -24.74,-28.95 -37.1,-65.83 -37.1,-110.67 0,-38.79 11.52,-70.76 34.58,-95.9 23.27,-24.96 52.41,-37.42 87.41,-37.42 32.69,0 63.1,8.18 91.19,24.53 28.28,16.35 42.44,30.7 42.44,43.07 -0.02,3.14 -0.53,5.45 -1.58,6.91 -1.06,1.47 -2.83,2.21 -5.35,2.21 -2.1,0 -12.16,-5.67 -30.18,-16.99 -17.81,-11.1 -36.25,-16.66 -55.33,-16.66 -26.84,0 -49.79,10.58 -68.85,31.75 m -29.87,122.95 c 0,19.9 5.54,36.68 16.66,50.29 11.31,13.62 25.36,20.44 42.13,20.44 17.6,-0.01 32.29,-6.18 44.01,-18.54 11.73,-12.16 17.61,-27.47 17.61,-45.9 -0.01,-9.23 -3.36,-15 -10.06,-17.31 -6.71,-2.1 -20.54,-3.13 -41.5,-3.13 h -44.97 c -9.44,0 -15.81,0.94 -19.17,2.83 -3.14,1.88 -4.71,5.65 -4.71,11.32 m 301.31,-502.278 -58.57,-60.633 137.35,-132.629 57.44,59.492 c 43.77,45.328 12.58,98.008 -16.88,126.438 -26.01,25.121 -74.65,53.621 -119.34,7.332 m -7.69,-55.43 26.6,27.539 c 11.82,12.238 33.73,28.418 74.28,-10.723 22.57,-21.797 38.52,-52.367 15.99,-75.707 l -26.97,-27.91 z m -99.85,-261.723 -7.45,40.86 61.63,34.16 29.77,-28.481 37.91,21 -151.39,134.371 -40.23,-22.3 33.02,-199.977 z m -14.13,74.86 -15.22,77.91 0.47,0.261 57.31,-54.589 z M 1499.62,609.57 c -11.23,52.801 13.68,71.141 32.41,75.121 32.26,6.86 42.72,-12.929 48.22,-23.449 l 39.01,8.278 c -7.94,27.14 -38.75,60.82 -94.67,48.941 -48.13,-10.231 -78.77,-51.539 -64.88,-116.832 13.71,-64.5 56.48,-90.469 106.16,-79.91 46.81,9.941 67.31,43.929 66.49,86.16 l -39.02,-8.289 c 0.19,-23.879 -12.3,-39.309 -33.89,-43.899 -33.03,-7.011 -52.7,20.329 -59.83,53.879 m -100.95,87.11 -39.88,0.711 -3.33,-190.903 39.87,-0.699 z m -108,-74.188 -82.48,16.028 8.22,42.289 94.22,-18.317 6.45,33.137 -133.38,25.941 -36.43,-187.41 39.16,-7.609 15.32,78.808 82.48,-16.019 z m -191.53,132.668 -74.6,-175.738 36.71,-15.59 74.59,175.738 z m -99.855,15.57 47.265,-33.109 19.37,27.66 -127.205,89.078 -19.367,-27.66 47.269,-33.097 L 876.477,664.871 909.145,642 Z m -217.629,86.661 c 18.571,-22.93 11.723,-30.532 -8.531,-46.922 -15.289,-12.399 -21.93,-19.821 -27.281,-27.571 l 27.773,-34.316 3.934,3.18 c -2.871,8.617 2.5,12.968 24.187,30.547 27.692,22.421 26.891,32.711 22.387,49.261 16.832,-10.648 37.586,-7.539 53.91,5.68 12.809,10.371 36.09,41.191 4.133,80.66 l -60.75,75.02 -148.371,-120.149 24.598,-30.371 58.074,47.012 z m -0.937,52.281 39.676,32.129 31.289,-38.629 c 14.734,-18.184 6.004,-31.082 -1.844,-37.442 -14.672,-11.878 -26.613,-8.539 -39.672,7.579 z m -35.02,246.818 -177.023,-71.52 54.293,-134.38 31.308,12.66 -39.648,98.12 45.859,18.54 34.86,-86.308 31.308,12.668 -34.859,86.29 37.23,15.04 37.95,-93.94 31.308,12.65 z M 562.285,1255 c -3.531,33.58 25.735,50.28 59.844,53.87 53.676,5.65 69.316,-21.05 71.316,-40.1 3.45,-32.79 -17.328,-41.13 -28.367,-45.48 l 4.168,-39.67 c 27.809,5.06 64.531,32.17 58.551,89.04 -5.141,48.91 -43.024,83.71 -109.391,76.72 -65.578,-6.88 -95.89,-46.7 -90.578,-97.21 5,-47.6 36.66,-71.54 78.75,-75.15 l -4.172,39.68 c -23.769,2.31 -37.812,16.35 -40.121,38.3 m 242.051,684.94 c -11.785,12.66 -2.367,29.08 8.723,39.42 25.476,23.77 41.609,11.17 48.195,5.67 l 28.023,26.12 c -16.164,16.94 -53.781,34.26 -96.582,-5.66 -45.336,-42.28 -28.121,-77.51 -13.609,-93.09 28.672,-30.73 55.191,-15.47 82.66,0.31 l 18.238,10.47 c 18.063,10.3 31.293,17.17 41.454,6.27 13.789,-14.78 1.496,-32.43 -12.321,-45.3 -25.48,-23.78 -43.16,-12.62 -50.621,-5.02 l -28.016,-26.12 c 16.145,-17.33 52.297,-38.54 103.286,9 12.25,11.44 51.609,55.05 12.422,97.08 -23.399,25.11 -48.18,16.55 -71.602,3.44 l -41.859,-23.38 c -7.102,-4.08 -18.231,-10.1 -28.391,0.79 m 218.964,38.9 -23.23,43.7 82.22,43.71 -15.86,29.84 -82.219,-43.73 -18.863,35.47 89.502,47.6 -15.88,29.82 -124.025,-65.93 89.685,-168.68 128.03,68.07 -15.86,29.84 z m 239.6,145.81 c 17.14,10.16 23.78,30.08 19.41,50.64 -3.41,16.14 -20.32,50.89 -70.03,40.32 l -94.47,-20.07 39.72,-186.86 38.25,8.14 -15.55,73.11 40.34,8.59 c 28.89,6.14 32.56,-3.42 37.97,-28.92 4.11,-19.27 7.71,-28.56 12.19,-36.86 l 43.2,9.19 -1.04,4.95 c -9,1.34 -10.44,8.12 -16.24,35.43 -7.42,34.88 -16.96,38.83 -33.75,42.34 m -43.55,6.51 -45.81,-9.73 -10.62,49.96 48.67,10.36 c 22.9,4.85 30.42,-8.77 32.53,-18.66 3.92,-18.47 -4.47,-27.6 -24.77,-31.93 m 164.03,-89.6 38.02,-1.33 71.53,188.66 -41.47,1.44 -46.54,-143.19 -0.53,0.02 -35.88,146.07 -42.82,1.5 z m 117.42,-12.44 39.04,-8.28 39.71,186.84 -39.03,8.3 z m -105.59,-104.88 c -293.84,0 -532.042,-238.21 -532.042,-532.07 0,-293.86 238.202,-532.068 532.042,-532.068 204.95,0 382.83,115.859 471.7,285.668 -44.02,-26.82 -95.7,-42.25 -151.01,-42.25 -160.55,0 -290.69,130.14 -290.69,290.7 0,160.54 130.14,290.69 290.69,290.69 53.96,0 104.51,-14.72 147.81,-40.33 -89.9,166.51 -265.99,279.66 -468.5,279.66 m 12.27,-620.45 c 0,-10.43 -9.63,-22.97 -28.89,-37.59 -13.53,-10.45 -27.34,-18.54 -41.39,-24.28 -29.69,-11.76 -61.17,-17.5 -94.49,-17.25 -37.23,0.26 -69.51,9.26 -96.84,26.99 -29.68,19.54 -49.61,46.12 -59.75,79.73 -6.51,20.08 -9.64,40.67 -9.37,61.76 -0.27,20.85 3.13,41.45 10.16,61.77 12.51,37.78 37.66,69.33 75.45,94.59 36.22,24.51 74.92,36.89 116.1,37.15 23.2,0 45.35,-5.5 66.46,-16.47 10.68,-5.76 19.94,-12.68 27.74,-20.8 11.46,-11.76 17.2,-21.44 17.2,-29.03 -0.25,-11.77 -11.45,-25.37 -33.61,-40.8 -8.34,-6.02 -15,-9.02 -19.94,-9.02 -8.09,-0.52 -18.64,11.38 -31.68,35.75 l -14.1,25.93 c -9.4,13.87 -22.85,21.09 -40.35,21.61 -27.95,0.25 -50.55,-13.67 -67.78,-41.8 -13.85,-22.13 -20.76,-48.42 -20.76,-78.88 0,-41.39 11.59,-76.15 34.79,-104.28 24.23,-29.16 57.32,-43.87 99.28,-44.12 20.05,-0.27 42.06,4.41 66.05,14.02 7.04,2.6 13.67,5.79 19.92,9.55 6.25,3.77 11.6,5.79 16.03,6.06 6.25,-0.27 9.52,-3.79 9.77,-10.59 m 227.85,683.35 13.59,-6.05 -4.88,-2.98 c 0.31,-0.14 0.32,-0.53 0.64,-0.68 43.75,-19.47 80.34,-4.01 104.5,30.66 l -36.46,16.23 c -13.89,-19.44 -33.07,-24.59 -53.25,-15.62 -30.86,13.75 -30.72,47.46 -16.76,78.83 21.98,49.33 52.93,49.53 70.43,41.74 30.14,-13.42 26.97,-35.6 25.24,-47.34 l 36.46,-16.24 c 9.52,26.62 4.39,72.02 -47.87,95.27 -44.96,20.04 -94.06,4.62 -121.23,-56.39 -24.16,-54.28 -7.19,-94.35 29.59,-117.43 m 0,0 -0.76,0.34 -22.45,-14.47 2.95,-7.13 c 3.58,-0.44 7.91,-1.2 10.57,-2.4 4.87,-2.15 8.07,-7.38 5.59,-12.96 -2.7,-6.09 -10.55,-6.66 -15.64,-4.39 -5.1,2.27 -11.53,7.46 -16.98,12.22 l -10.54,-9.29 c 11.2,-10.82 15.99,-14.4 25.23,-18.52 17.75,-7.9 34.59,-3.45 40.86,10.63 6.82,15.32 -5.9,25.35 -12.7,28.39 -2.92,1.3 -4.49,1.7 -7.73,2.28 l 10.31,6.27 c -4.27,1.95 -4.92,6.66 -8.71,9.03 m 495,-677.53 v 145.58 c 0,4.61 0.84,7.64 2.5,9.12 1.68,1.67 4.74,2.52 9.14,2.52 h 36.15 c 10.47,0 18.54,3.02 24.22,9.11 5.65,6.07 8.48,14.88 8.48,26.41 -0.02,2.09 -0.53,3.77 -1.57,5.02 -1.05,1.26 -2.41,1.9 -4.09,1.9 -0.63,0 -4.1,-2.2 -10.38,-6.6 -6.07,-4.2 -12.36,-6.29 -18.86,-6.29 h -33.32 c -5.26,0 -8.62,0.62 -10.06,1.88 -1.49,1.47 -2.21,4.92 -2.21,10.37 v 49.69 11 c 0,3.55 -0.62,6.19 -1.89,7.87 -1.06,1.87 -2.83,2.82 -5.33,2.82 -4.01,-0.01 -9.98,-5.57 -17.92,-16.66 -8.18,-11.33 -15.74,-20.75 -22.64,-28.3 -11.11,-12.57 -23.49,-25.16 -37.1,-37.74 -13.44,-12.36 -20.12,-19.91 -20.12,-22.62 0,-2.95 0.82,-5.03 2.5,-6.29 1.68,-1.06 5.14,-1.57 10.39,-1.57 h 13.51 c 3.56,-0.02 6.18,-1.17 7.86,-3.46 1.66,-2.11 2.52,-5.67 2.52,-10.69 v -148.73 c 0,-34.79 4.8,-58.26 14.45,-70.41 9.65,-11.95 26.72,-17.93 51.25,-17.93 21.39,0 41.4,4.94 60.04,14.77 18.67,10.07 27.99,19.29 27.99,27.67 0,2.31 -0.94,4.2 -2.82,5.67 -1.68,1.46 -3.88,2.2 -6.6,2.2 -1.68,-0.02 -7.24,-2.01 -16.66,-5.97 -9.45,-3.79 -18.77,-5.67 -27.99,-5.67 -11.74,0 -19.92,3.67 -24.52,11 -4.61,7.34 -6.92,22.11 -6.92,44.33 m 267.46,-276.21 -40.41,14.51 C 2215.72,653.27 1838.1,371.059 1394.77,371.059 830.168,371.059 372.484,828.75 372.484,1393.34 c 0,564.59 457.684,1022.27 1022.286,1022.27 431.58,0 800.73,-267.43 950.69,-645.71 l 39.91,15.82 c -156.23,394.09 -540.84,672.84 -990.6,672.84 -588.317,0 -1065.223,-476.9 -1065.223,-1065.22 0,-588.301 476.906,-1065.211 1065.223,-1065.211 462.01,0 855.44,294.121 1003.02,705.271 m -68.13,548.17 c 11.94,13.21 17.93,23.27 17.93,30.2 -0.02,6.7 -5.88,17.17 -17.61,31.43 -11.53,14.24 -19.71,21.39 -24.52,21.39 -4.21,-0.01 -12.69,-7.45 -25.48,-22.33 -12.58,-14.89 -18.85,-25.68 -18.85,-32.39 0,-6.3 5.55,-15.83 16.66,-28.6 11.31,-12.8 20.12,-19.18 26.41,-19.18 5.02,0 13.51,6.49 25.46,19.48 m 24.83,-326.66 c -5.24,4.41 -8.9,9.76 -10.98,16.03 -2.12,6.51 -3.16,17.72 -3.16,33.65 v 148.09 c 0,11.52 0.21,22.42 0.64,32.68 0.4,10.49 0.61,15.21 0.61,14.15 0,5.03 -0.61,8.7 -1.87,11.02 -1.26,2.29 -3.17,3.45 -5.65,3.45 -0.45,0 -6.31,-2.83 -17.62,-8.48 -11.11,-5.68 -22.85,-10.6 -35.21,-14.79 -5.25,-1.89 -10.49,-3.55 -15.73,-5.03 -5.25,-1.26 -11.21,-2.41 -17.92,-3.45 -9.01,-1.68 -14.56,-3.45 -16.66,-5.35 -2.09,-1.68 -3.15,-4.39 -3.15,-8.18 0,-3.14 0.94,-5.56 2.84,-7.23 1.87,-1.46 6.08,-2.51 12.57,-3.13 h 0.63 c 6.91,-0.84 12.05,-2.11 15.42,-3.77 4.59,-2.95 7.74,-6.83 9.42,-11.64 1.88,-4.83 2.83,-14.89 2.83,-30.19 v -113.18 -11 c -0.02,-10.92 -1.69,-19.81 -5.04,-26.74 -3.35,-6.7 -9.41,-12.48 -18.24,-17.28 -4.39,-2.31 -7.22,-4.3 -8.48,-5.98 -1.25,-1.68 -1.89,-3.67 -1.89,-5.98 0,-3.14 1.05,-5.66 3.15,-7.54 2.3,-1.87 5.13,-2.83 8.47,-2.83 -1.66,0.02 4.75,0.84 19.2,2.52 14.65,1.68 30.39,2.52 47.15,2.52 10.49,-0.02 22.01,-0.84 34.59,-2.52 12.77,-1.68 20.33,-2.52 22.65,-2.52 4.59,0 8.15,0.96 10.69,2.83 2.5,1.88 3.77,4.61 3.77,8.19 0,5.43 -4.09,9.43 -12.27,11.93 -0.64,0.41 -1.04,0.74 -1.27,0.94 -0.41,0 -1.15,0.21 -2.19,0.64 -7.77,2.52 -13.51,5.22 -17.3,8.17 m -303.24,1336.52 10.87,21.85 -100.33,49.86 -12.86,-24.89 70.78,-35.17 c -10.28,-3.28 -24.77,-10.9 -43.52,-22.86 -29.55,-19.59 -51.07,-41.93 -64.59,-66.98 l 29.01,-14.41 c 4.06,8.16 10.85,17.82 20.39,28.96 9.54,11.14 18.49,20.14 26.87,26.97 10.62,8.72 22.28,16.52 34.98,23.35 12.71,6.85 22.18,11.28 28.4,13.32 m -200,-52.72 56.39,148.29 -24.34,9.26 c -0.49,-1.3 -1.62,-3.13 -3.38,-5.51 -2.99,-3.93 -6.23,-6.75 -9.75,-8.46 -5.15,-2.49 -10.9,-3.28 -17.24,-2.35 -3.99,0.59 -10.65,2.41 -19.98,5.5 l -7.54,-19.85 34.86,-13.25 -38.87,-102.27 z m -64.95,106.28 c 6.83,25.27 8.19,45.85 4.05,61.7 -4.14,15.85 -15.96,26.42 -35.45,31.7 -19.51,5.27 -35.04,2.11 -46.6,-9.5 -11.57,-11.6 -20.77,-30.04 -27.62,-55.33 -6.83,-25.28 -8.18,-45.81 -4.02,-61.59 4.14,-15.78 15.98,-26.31 35.49,-31.59 19.49,-5.27 35.02,-2.15 46.56,9.39 11.56,11.54 20.74,29.94 27.59,55.22 m -24.13,50.51 c 0.38,-9.62 -1.94,-23.66 -6.92,-42.1 -4.76,-17.62 -9.8,-30.7 -15.1,-39.28 -5.31,-8.57 -12.44,-11.66 -21.37,-9.24 -8.96,2.42 -13.6,8.69 -13.97,18.8 -0.36,10.12 1.85,23.96 6.61,41.57 4.99,18.44 10.12,31.71 15.42,39.81 5.29,8.08 12.4,10.92 21.34,8.5 8.95,-2.42 13.61,-8.43 13.99,-18.06 m -113.4,-16.72 c 8.41,7.84 13.57,17.56 15.5,29.15 2.5,15.11 -0.39,28.07 -8.66,38.86 -8.29,10.8 -20.71,17.57 -37.27,20.32 -20.96,3.46 -36.84,-1.93 -47.64,-16.17 -5.68,-7.49 -9.88,-17.85 -12.59,-31.09 l 29.9,-4.95 c 1.81,8.72 4.02,14.93 6.64,18.64 4.53,6.42 11.48,8.85 20.84,7.31 6.83,-1.14 11.73,-4.2 14.67,-9.19 2.94,-5 3.86,-10.81 2.77,-17.43 -1.35,-8.14 -5.79,-15.08 -13.34,-20.86 -4.89,-3.7 -15.27,-9.45 -31.13,-17.24 -18.27,-8.95 -30.46,-18.29 -36.58,-28 -6.08,-8.52 -10.18,-18.38 -12.33,-29.56 l 107.19,-17.75 4.49,27.09 -68.34,11.32 c 2.48,2.92 5.35,5.36 8.61,7.33 3.24,1.98 9.18,5.06 17.8,9.26 l 13.77,6.7 c 11.6,5.61 20.17,11.03 25.7,16.26 m -162.79,-56.49 77.24,159.98 -25.84,2.31 -77.01,-160.02 z m -84.34,104.72 c -2.71,-0.97 -6.48,-3.01 -11.33,-6.08 l 6.12,34.61 64.78,-0.83 0.33,26.47 -87.27,1.11 -12.24,-87.49 27.93,-1.67 c 2.52,4.71 6.25,7.91 11.15,9.6 2.77,0.91 6.05,1.35 9.84,1.3 8,-0.1 13.85,-2.97 17.57,-8.59 3.72,-5.63 5.52,-12.49 5.42,-20.59 -0.11,-8.25 -2.21,-15.05 -6.32,-20.44 -4.1,-5.38 -10.01,-8.02 -17.74,-7.91 -6.68,0.07 -11.75,1.98 -15.2,5.71 -3.45,3.73 -5.74,8.98 -6.89,15.79 l -31.07,0.4 c 0.9,-14.9 6.15,-26.46 15.74,-34.68 9.57,-8.21 21.92,-12.42 36.99,-12.62 18.73,-0.22 32.86,5.36 42.42,16.76 9.54,11.41 14.41,24.44 14.59,39.09 0.22,16.86 -4.51,29.76 -14.16,38.7 -9.64,8.96 -21.02,13.52 -34.14,13.67 -6.48,0.08 -11.99,-0.69 -16.52,-2.31 m -77.55,-68.88 17.88,1.58 -2.17,24.31 -17.87,-1.59 -8.76,98.74 -34.88,-3.1 -49.57,-101.06 2.41,-27.13 62.56,5.56 3.01,-34.01 30.41,2.69 z m -32.56,21.6 -39.45,-3.49 33.4,71.55 z m -131.73,-77.03 31.39,6 -29.85,155.82 -25.58,-4.9 c 0.26,-1.37 0.27,-3.52 0.02,-6.46 -0.47,-4.92 -1.75,-9.03 -3.86,-12.32 -3.08,-4.82 -7.56,-8.51 -13.45,-11.05 -3.69,-1.6 -10.33,-3.53 -19.88,-5.82 l 3.99,-20.84 36.65,7.03 z m -145.95,-37.82 20.92,6.79 -49.633,152.86 -20.918,-6.79 z m -148.264,22.44 81.641,33.36 -7.032,17.22 -81.64,-33.36 -18.457,45.17 88.32,36.08 -7.441,18.24 -107.969,-44.12 60.793,-148.78 109.476,44.74 -7.242,17.72 -89.84,-36.71 z m -162.598,-88.3 -45.871,-30.19 11.121,-16.9 45.879,30.2 z m 141.348,19.46 -70.391,-39.35 -69.078,123.58 -19.008,-10.61 78.426,-140.3 89.391,49.98 z M 656.227,2400.43 c 1.019,15.52 -3.047,30.46 -12.207,44.82 l -16.536,-13.32 c 4.961,-9.59 7.774,-18.29 8.446,-26.07 1.316,-14.77 -4.16,-27.1 -16.442,-36.99 -13.34,-10.74 -27.043,-14.26 -41.121,-10.55 -14.07,3.7 -27.019,12.89 -38.832,27.57 -14.418,17.91 -21.41,34.2 -20.937,48.87 0.468,14.67 6.75,26.87 18.859,36.63 9.93,7.99 19.539,11.84 28.832,11.56 9.297,-0.29 18.106,-3.73 26.445,-10.31 l 16.536,13.31 c -9.512,9.86 -21.957,15.48 -37.321,16.85 -15.371,1.4 -30.894,-4.21 -46.562,-16.84 -18.36,-14.79 -27.59,-32.81 -27.684,-54.06 -0.137,-19.6 7.235,-38.65 22.11,-57.11 19.605,-24.33 40.523,-37.15 62.765,-38.44 16.871,-0.94 32.488,4.37 46.86,15.95 16.679,13.43 25.613,29.48 26.789,48.13 m -233.114,-108.13 -34.914,34.09 66.66,68.27 -14.093,13.76 -81.489,-83.46 115,-112.28 82.633,84.62 -13.703,13.38 -67.801,-69.43 -38.98,38.05 61.609,63.1 -13.308,13 z m -34.148,-51.58 c -17.539,13.46 -35.188,20.23 -52.942,20.33 -19.757,0 -36.277,-8.66 -49.546,-25.96 l -39.079,-51 127.547,-97.78 38.961,50.81 c 16.555,21.58 18.551,44.23 6.012,67.91 -7.09,13.41 -17.402,25.3 -30.953,35.69 m -10.629,-19.98 c 4.109,-3.14 8.242,-6.98 12.402,-11.51 6.918,-7.66 11.668,-15.12 14.258,-22.4 3.211,-9.12 3.434,-17.83 0.664,-26.13 -1.613,-4.61 -4.605,-9.76 -8.984,-15.49 l -23.113,-30.13 -97.95,75.09 22.985,29.97 c 10.461,13.64 22.41,20.17 35.859,19.62 13.449,-0.56 28.082,-6.9 43.879,-19.02 m -115.602,-181.82 -56.226,-113.18 14.398,-7.15 56.242,113.17 z m -41.957,-275.15 c -8.668,2.8 -19.218,8.11 -31.64,15.92 -12.426,7.79 -22.629,15.33 -30.621,22.61 -10.2,9.22 -19.61,19.61 -28.239,31.18 -8.632,11.57 -14.41,20.28 -17.343,26.15 l -23.2074,7.54 -34.5899,-106.57 26.5,-9.07 24.4103,75.19 c 4.758,-9.69 14.422,-22.91 28.992,-39.7 23.727,-26.36 48.969,-44.37 75.738,-54.06 z M 83.2852,1713.62 c -12.5,1.6 -23.3594,-1.06 -32.5977,-8.01 -9.2422,-6.96 -15.4297,-17.62 -18.5586,-32.02 -2.1719,-9.98 -1.7617,-19.05 1.2383,-27.19 3.0117,-8.17 7.7695,-15.27 14.2891,-21.31 7.6523,-7.04 17.871,-12.89 30.6679,-17.54 7.2031,-2.62 16.7149,-5.21 28.5388,-7.78 20.172,-4.4 37.422,-4.39 51.746,0.04 18.34,5.72 29.629,18.33 33.887,37.87 3.949,18.17 1.352,32.77 -7.816,43.79 -9.172,11.04 -20.992,18.13 -35.461,21.27 -14.539,3.18 -27.434,1.36 -38.692,-5.41 -11.2497,-6.76 -18.3786,-17.03 -21.3707,-30.78 -1.3985,-6.41 -1.5977,-12.34 -0.6211,-17.77 0.9804,-5.44 3.3007,-10.55 6.9726,-15.29 -11.793,3.45 -20.5039,6.99 -26.1328,10.6 -10.1992,6.63 -14.2266,14.89 -12.0703,24.81 1.4414,6.63 4.9414,11.04 10.5039,13.28 3.418,1.27 6.3672,1.63 8.8555,1.08 z m 28.7808,-59.12 c 1.403,6.43 4.981,11.32 10.75,14.69 5.782,3.37 13.192,4.07 22.243,2.11 8.121,-1.78 14.304,-5.17 18.558,-10.16 4.25,-4.99 5.641,-10.87 4.172,-17.64 -1.512,-6.92 -5.391,-12.05 -11.641,-15.39 -6.25,-3.33 -13.55,-4.1 -21.878,-2.28 -10.344,2.25 -17.176,6.86 -20.504,13.87 -2.266,4.66 -2.828,9.61 -1.7,14.8 m -76.7301,-91.81 c -14.8867,-6.84 -23.2265,-20.34 -25.0078,-40.45 -1.79294,-20.13 4.0352,-34.88 17.4883,-44.23 13.4492,-9.37 33.2109,-15.2 59.3008,-17.51 26.0818,-2.33 46.5308,-0.05 61.3398,6.79 14.82,6.86 23.121,20.34 24.91,40.46 1.778,20.12 -4.012,34.87 -17.39,44.22 -13.372,9.36 -33.102,15.2 -59.1918,17.5 -26.0782,2.33 -46.5704,0.05 -61.4493,-6.78 m 0.6016,-42.74 c 0.8203,9.24 5.9258,14.87 15.3438,16.93 9.4062,2.06 23.625,2.24 42.664,0.55 18.1637,-1.6 31.9337,-4.28 41.3047,-8.01 9.379,-3.72 13.645,-10.19 12.824,-19.41 -0.816,-9.24 -6.164,-14.91 -16.066,-17.03 -9.891,-2.13 -23.91,-2.38 -42.0822,-0.77 -19.0274,1.69 -32.9961,4.42 -41.8906,8.23 -8.8907,3.79 -12.918,10.29 -12.0977,19.51 M 18.3359,1413.92 c -9.17184,-10.05 -13.6484,-23.47 -13.43746,-40.26 0.26953,-21.25 8.36716,-35.94 24.30076,-44.07 8.3711,-4.27 19.3086,-6.58 32.8086,-6.91 l -0.3906,30.29 c -8.9024,0.26 -15.4102,1.35 -19.5234,3.27 -7.1094,3.33 -10.7266,9.74 -10.8477,19.23 -0.0898,6.92 2.0703,12.27 6.4687,16.06 4.4024,3.77 9.961,5.7 16.6719,5.78 8.2422,0.1 15.8633,-3.05 22.8789,-9.45 4.5039,-4.18 11.9805,-13.38 22.4532,-27.62 12.0192,-16.41 23.3472,-26.76 33.9762,-31.08 9.473,-4.47 19.903,-6.79 31.282,-6.93 l -1.379,108.64 -27.461,-0.35 0.879,-69.25 c -3.309,1.92 -6.219,4.32 -8.739,7.17 -2.511,2.83 -6.593,8.13 -12.242,15.88 l -9.008,12.4 c -7.5778,10.43 -14.4215,17.9 -20.527,22.43 -9.2148,6.89 -19.6836,10.27 -31.4219,10.13 -15.3203,-0.21 -27.5742,-5.33 -36.7422,-15.36 M 171.098,1259.89 -0.00390625,1307.72 2.29297,1281.88 173.379,1234.28 Z m -124.3128,-56.51 -26.1172,-4.31 14.2695,-86.12 88.2815,3.34 -3.281,27.8 c -5.079,1.66 -8.883,4.76 -11.403,9.27 -1.387,2.58 -2.387,5.73 -3.008,9.46 -1.308,7.91 0.481,14.18 5.364,18.83 4.886,4.64 11.328,7.63 19.312,8.94 8.133,1.35 15.203,0.47 21.235,-2.62 6.019,-3.1 9.66,-8.45 10.921,-16.05 1.086,-6.62 0.106,-11.93 -2.964,-15.98 -3.055,-4.06 -7.829,-7.24 -14.329,-9.57 l 5.079,-30.66 c 14.503,3.51 24.96,10.7 31.363,21.6 6.406,10.88 8.371,23.77 5.91,38.65 -3.063,18.46 -11.039,31.41 -23.949,38.79 -12.91,7.38 -26.594,9.88 -41.063,7.5 -16.621,-2.77 -28.4919,-9.67 -35.6013,-20.74 -7.1055,-11.08 -9.5977,-23.09 -7.4492,-36.02 1.0586,-6.4 2.7851,-11.68 5.1797,-15.86 1.4492,-2.5 4.1132,-5.86 7.9961,-10.09 l -35.1524,-0.06 z m 159.2928,-131.42 -152.0585,-45.22 7.4141,-24.96 c 1.3359,0.39 3.4727,0.61 6.4336,0.65 4.9414,0.02 9.1484,-0.84 12.6523,-2.621 5.0938,-2.579 9.2071,-6.661 12.3164,-12.27 1.9571,-3.508 4.5508,-9.918 7.7691,-19.199 l 20.352,6.039 -10.641,35.761 104.872,31.21 z m -94.34,-159.05 c -10.093,-12.91 -11.324,-28.73 -3.672,-47.422 7.641,-18.707 19.579,-29.136 35.821,-31.289 16.25,-2.14 36.488,1.742 60.73,11.641 24.238,9.89 41.367,21.289 51.391,34.18 10.027,12.878 11.219,28.66 3.578,47.371 -7.637,18.711 -19.547,29.14 -35.731,31.328 -16.167,2.16 -36.378,-1.699 -60.617,-11.59 -24.254,-9.918 -41.414,-21.32 -51.5,-34.219 m 25.996,-15.621 c 7.422,6.133 19.969,12.832 37.661,20.063 16.878,6.886 30.343,10.839 40.382,11.828 10.039,0.98 16.813,-2.809 20.313,-11.379 3.496,-8.582 1.348,-16.082 -6.473,-22.5 -7.82,-6.43 -20.16,-13.09 -37.039,-19.981 -17.691,-7.23 -31.363,-11.211 -41,-11.922 -9.64,-0.699 -16.211,3.231 -19.715,11.801 -3.504,8.59 -1.547,15.942 5.871,22.09 m 27.641,-123.551 c -3.598,-13.148 -1.469,-27.129 6.363,-41.976 9.918,-18.793 23.821,-28.18 41.7,-28.16 9.398,0.019 20.191,2.929 32.359,8.789 l -14.141,26.789 c -8.039,-3.821 -14.328,-5.821 -18.859,-5.989 -7.859,-0.261 -13.996,3.789 -18.434,12.188 -3.226,6.109 -3.75,11.871 -1.547,17.242 2.2,5.367 6.27,9.609 12.2,12.738 7.297,3.84 15.519,4.512 24.679,2.012 5.91,-1.66 16.758,-6.449 32.563,-14.359 18.176,-9.141 32.992,-13.203 44.418,-12.192 10.465,0.321 20.801,3.012 30.992,8.071 l -50.691,96.097 -24.289,-12.84 32.316,-61.25 c -3.828,0.223 -7.508,1.024 -11.039,2.411 -3.539,1.382 -9.59,4.25 -18.141,8.57 l -13.668,6.91 c -11.488,5.84 -20.988,9.383 -28.488,10.633 -11.34,1.949 -22.203,0.187 -32.59,-5.293 -13.539,-7.149 -22.113,-17.289 -25.703,-30.391 M 292.266,611.391 c -7.453,-12.559 -14.168,-27.852 -20.137,-45.922 l 13.84,-18.957 5.98,12.578 c 8.215,17.34 18.731,32.871 31.547,46.621 8.414,9.019 18.391,17.73 29.942,26.168 18.027,13.141 36.527,22.641 55.48,28.461 11.187,3.469 26.617,6.461 46.297,8.922 l -13.578,18.636 -13.141,0.012 c -8.148,0.262 -19.019,-1.031 -32.629,-3.922 -24.289,-5.199 -45.301,-14.258 -63.039,-27.187 -16.152,-11.781 -29.668,-26.93 -40.562,-45.41 m 35.41,-70.102 -21.36,-18.937 78.497,-88.481 120.636,107.051 -81.125,91.41 -21.679,-19.242 59.25,-66.781 -31.004,-27.52 -52.004,58.582 -20.953,-18.582 51.992,-58.59 -25.61,-22.73 z m 159.32,-71.398 -65.789,-74.161 25.609,-22.718 65.75,74.078 c 7.352,8.289 13.7,13.48 19.039,15.551 9.04,4.058 18.653,1.578 28.809,-7.442 10.223,-9.058 13.863,-18.34 10.902,-27.789 -1.429,-5.551 -5.82,-12.48 -13.171,-20.762 l -65.739,-74.089 25.614,-22.727 65.796,74.137 c 11.372,12.832 18.25,24.57 20.614,35.25 4.16,19.711 -4.196,38.832 -25.067,57.351 -20.847,18.512 -40.8,24.489 -59.828,17.969 -10.305,-3.617 -21.156,-11.84 -32.539,-24.648 m 70.762,-177.719 -12.613,-5.973 19.011,-13.867 c 18.071,5.957 33.395,12.668 45.949,20.117 18.504,10.871 33.641,24.391 45.422,40.539 12.93,17.742 21.989,38.75 27.161,63.071 2.886,13.589 4.187,24.472 3.898,32.621 l -0.02,13.16 -18.652,13.609 c -2.445,-19.699 -5.41,-35.148 -8.875,-46.34 -5.801,-18.968 -15.285,-37.48 -28.434,-55.507 -8.425,-11.563 -17.148,-21.532 -26.167,-29.942 -13.758,-12.801 -29.321,-23.301 -46.68,-31.488 m 211.406,40.43 -12.137,-20.532 19.692,-11.64 12.136,20.531 z m -0.773,-130.27 c -4.664,-12.871 -4.235,-26.523 1.289,-40.941 5.523,-14.411 17.394,-25.86 35.617,-34.371 21.367,-9.981 41.613,-10.321 60.738,-1.059 17.66,8.519 31.516,23.519 41.543,45 13.219,28.32 15.508,52.738 6.879,73.277 -6.582,15.571 -18.242,27.25 -34.961,35.063 -19.398,9.058 -37.738,10 -55.008,2.847 C 810.105,276.242 798.484,266 789.629,251.449 l 19.238,-8.957 c 6.422,8.668 12.981,15.008 19.688,19.039 12.679,7.688 26.164,8.199 40.453,1.52 15.508,-7.231 24.707,-17.992 27.57,-32.262 2.871,-14.277 0.317,-29.93 -7.652,-47 -9.727,-20.84 -21.281,-34.289 -34.649,-40.328 -13.379,-6.031 -27.109,-5.762 -41.191,0.801 -11.559,5.41 -19.246,12.328 -23.082,20.797 -3.828,8.48 -4.629,17.91 -2.387,28.3 z m 152.797,-98.711 -6.083,-18.7304 110.935,-36.0195 49.64,152.8709 -112.5,36.528 -5.914,-18.211 92.314,-29.977 -16.83,-51.812 -83.871,27.222 -5.754,-17.691 83.885,-27.231 -15.07,-46.4098 z m 217.462,0.469 -67.07,-66.84 25.38,-4.8594 51.08,52.8086 28.26,-68.0078 26.66,-5.1211 -37.65,86.918 71.39,70.2737 -25.7,4.918 -55.66,-56.621 -29.62,72.972 -26.45,5.059 z M 1246.02,27.0391 1244.77,7.39063 1361.17,0 l 10.17,160.41 -118.04,7.488 -1.22,-19.109 96.86,-6.148 -3.44,-54.3715 -88.02,5.5821 -1.17,-18.5703 88.01,-5.5704 L 1341.23,21 Z m 249.78,138.1209 -22.82,-1.461 1.51,-23.789 22.81,1.442 z m 51.74,4.281 -13.81,-2.293 14.04,-84.8394 69.63,11.543 -2.95,17.8084 -49.66,-8.219 c -2.86,18.598 -0.38,32.809 7.46,42.641 7.83,9.84 18.76,15.918 32.79,18.238 18.33,3.051 32.54,-0.679 42.61,-11.172 10.06,-10.488 16.67,-25.179 19.79,-44.019 3.6,-21.797 1.42,-39.0274 -6.6,-51.6798 -7.99,-12.6172 -19.2,-20.1406 -33.56,-22.5195 -12.12,-2 -22.6,-1.0195 -31.44,2.9492 -8.85,3.9609 -15.49,11.5195 -19.95,22.6914 l -21.26,-3.5117 c 6.91,-20.1602 18.82,-33.0898 35.72,-38.7891 11.66,-3.9687 24.83,-4.75 39.51,-2.3281 21.42,3.5586 37.62,13.9297 48.63,31.1289 11.58,18.0508 15.16,40.3399 10.77,66.8987 -4.42,26.621 -15.14,46.351 -32.17,59.203 -15.32,9.957 -32.23,13.398 -50.7,10.348 -14.3,-2.36 -25.65,-6.989 -34.05,-13.848 -5,-4 -10.41,-10.602 -16.25,-19.762 z m 264.41,61.891 -113.38,-33.711 5.47,-18.359 93.01,27.679 15.55,-52.23 -84.53,-25.141 5.3,-17.828 84.52,25.137 13.92,-46.7774 -91.44,-27.1914 5.61,-18.8789 111.79,33.2578 z m 40.82,0.367 c 2.01,-2.379 4.4,-6.289 7.19,-11.75 l 9.81,-19.199 c 4.27,-8.32 8.74,-13.68 13.36,-16.102 4.64,-2.418 10.34,-3.468 17.1,-3.136 -4.9,-6.391 -7.85,-13.192 -8.86,-20.43 -1.02,-7.23 0.51,-15.223 4.59,-23.953 7.81,-16.699 19.88,-25.039 36.22,-24.981 8.58,0.063 18.33,2.641 29.23,7.743 l 66.2,30.898 -68,145.641 -19.73,-9.219 29.16,-62.461 -43.63,-20.371 c -7.83,-3.649 -14,-5.449 -18.5,-5.367 -7.93,0.23 -14.34,5.019 -19.23,14.308 l -12.53,23.75 c -2.92,5.551 -5.04,9.239 -6.36,11.039 -1.33,1.782 -2.62,3.161 -3.87,4.102 l -24.18,-11.289 1.53,-3.262 c 3.66,0.078 7.16,-1.89 10.5,-5.961 m 60.84,-59.629 c 3.52,6.141 9.77,11.328 18.77,15.532 l 44.35,20.687 23.23,-49.769 -46.85,-21.86 c -6.57,-3.058 -12.27,-4.531 -17.1,-4.371 -9.1,0.352 -16.07,5.703 -20.9,16.09 -4.51,9.652 -5,17.543 -1.5,23.691"
         style="fill:#231f20;fill-opacity:1;fill-rule:nonzero;stroke:none"
         id="path12" />
    </g>
  </g>
</svg>
